<svg width="2671" height="739" xmlns="http://www.w3.org/2000/svg" xmlns:xlink="http://www.w3.org/1999/xlink">
 <title>modified generic company logo</title>
 <defs>
  <linearGradient id="linearGradient5225">
   <stop stop-color="#2294fe" id="stop5227" offset="0"/>
   <stop stop-color="#014f96" id="stop5229" offset="1"/>
  </linearGradient>
  <linearGradient y2="0.024194" x2="0.5" y1="0.024194" x1="0.504032" id="linearGradient5311" xlink:href="#linearGradient5225"/>
 </defs>
 <metadata id="metadata4698">image/svg+xml</metadata>
 <g>
  <title>background</title>
  <rect fill="none" id="canvas_background" height="402" width="582" y="-1" x="-1"/>
 </g>
 <g>
  <title>Layer 1</title>
  <g id="layer1">
   <g id="g5286">
    <g fill="#666666" id="text4703">
     <path fill="#ffffff" d="m928.12106,375.08235l0,39.8979c-10.8136,-6.64943 -21.69635,-11.59802 -32.64838,-14.84569c-10.81359,-3.40194 -21.7655,-5.10304 -32.85607,-5.10325c-24.81556,0.00021 -44.08545,8.81486 -57.81006,26.44394c-13.72486,17.47485 -20.58716,42.06308 -20.58716,73.76468c0,31.70199 6.8623,56.36764 20.58716,73.99682c13.72461,17.47473 32.9945,26.2121 57.81006,26.21207c11.09057,0.00003 22.04248,-1.62375 32.85607,-4.87131c10.95203,-3.4021 21.83478,-8.42795 32.64838,-15.0777l0,39.43399c-10.67505,5.56723 -21.76575,9.7425 -33.27209,12.52607c-11.36811,2.78357 -23.4986,4.17541 -36.39142,4.17541c-35.07446,0 -62.9397,-12.29416 -83.59595,-36.88244c-20.65637,-24.58814 -30.9845,-57.75901 -30.9845,-99.51291c0,-42.37195 10.39734,-75.69754 31.19263,-99.9767c20.9336,-24.27869 49.56128,-36.41811 85.8833,-36.41838c11.78369,0.00027 23.29016,1.39202 34.51965,4.17533c11.22925,2.62915 22.112,6.64989 32.64838,12.06217" id="path5264"/>
     <path fill="#ffffff" d="m1084.4996,395.03131c-20.51782,0.00021 -36.73804,8.96948 -48.6604,26.90787c-11.92254,17.78411 -17.88367,42.21774 -17.88367,73.30075c0,31.08346 5.89185,55.59436 17.67579,73.53286c11.92242,17.784 28.21185,26.67606 48.86828,26.67603c20.37897,0.00003 36.52979,-8.9693 48.45239,-26.90796c11.92231,-17.9386 17.88355,-42.37216 17.88373,-73.30093c-0.00018,-30.77375 -5.96142,-55.13001 -17.88373,-73.06878c-11.9226,-18.09303 -28.07342,-27.13963 -48.45239,-27.13984m0,-36.18646c33.27191,0.00027 59.4043,12.06236 78.39734,36.18646c18.99243,24.12451 28.48901,57.5274 28.48914,100.20862c-0.00013,42.5271 -9.49671,75.9299 -28.48914,100.20889c-18.99304,24.12427 -45.12543,36.18646 -78.39734,36.18646c-33.41077,0 -59.61255,-12.06219 -78.60522,-36.18646c-18.85419,-24.27899 -28.28119,-57.6818 -28.28119,-100.20889c0,-42.68122 9.427,-76.08411 28.28119,-100.20862c18.99267,-24.1241 45.19445,-36.18619 78.60522,-36.18646" id="path5266"/>
     <path fill="#ffffff" d="m1435.93567,414.98025c9.56546,-19.17555 21.00277,-33.32535 34.3118,-42.44954c13.3085,-9.12368 28.97424,-13.68565 46.99673,-13.68586c24.2605,0.00021 42.97598,9.51074 56.14667,28.53158c13.16967,18.8667 19.75488,45.77452 19.75522,80.72367l0,156.80813l-38.47074,0l0,-155.4163c-0.00046,-24.8974 -3.95144,-43.3772 -11.85327,-55.43955c-7.90237,-12.06195 -19.96362,-18.09303 -36.18326,-18.09325c-19.82501,0.00022 -35.49066,7.34577 -46.99679,22.03664c-11.50678,14.69128 -17.26007,34.71753 -17.25989,60.07887l0,146.83359l-38.4708,0l0,-155.4163c-0.00015,-25.05198 -3.95129,-43.53183 -11.85315,-55.43955c-7.90234,-12.06195 -20.10205,-18.09303 -36.5993,-18.09325c-19.54761,0.00022 -35.0744,7.42307 -46.58099,22.2686c-11.50647,14.69129 -17.25989,34.64025 -17.25989,59.84691l0,146.83359l-38.47064,0l0,-259.80035l38.47064,0l0,40.36181c8.73401,-15.92796 19.20074,-27.68084 31.40057,-35.25856c12.19971,-7.57728 26.68677,-11.36601 43.4618,-11.36628c16.91308,0.00027 31.26159,4.79417 43.04556,14.38177c11.92224,9.58812 20.72555,23.506 26.40973,41.75363" id="path5268"/>
     <path fill="#ffffff" d="m1705.85502,585.93823l0,137.78702l-38.47058,0l0,-358.61734l38.47058,0l0,39.43391c8.04084,-15.46403 18.16092,-26.90759 30.36087,-34.33069c12.33841,-7.57727 27.03344,-11.36601 44.08541,-11.36625c28.28119,0.00024 51.22508,12.52629 68.83155,37.57823c17.74481,25.05238 26.61745,57.99133 26.61775,98.81694c-0.0003,40.82583 -8.87294,73.76486 -26.61775,98.81689c-17.60647,25.05225 -40.55036,37.57837 -68.83155,37.57837c-17.05197,0 -31.747,-3.71139 -44.08541,-11.13428c-12.19995,-7.57757 -22.32003,-19.09848 -30.36087,-34.5628m130.177,-90.69818c-0.00017,-31.39243 -5.82272,-55.98062 -17.46786,-73.76477c-11.50668,-17.93842 -27.38017,-26.90766 -47.6206,-26.9079c-20.24073,0.00024 -36.18334,8.96948 -47.82857,26.9079c-11.5065,17.78415 -17.26006,42.37234 -17.25997,73.76477c-0.00009,31.39261 5.75347,56.0582 17.25997,73.9968c11.64523,17.78396 27.58784,26.67587 47.82857,26.67587c20.24043,0 36.11392,-8.89191 47.6206,-26.67587c11.64514,-17.9386 17.46769,-42.60419 17.46786,-73.9968" id="path5270"/>
     <path fill="#ffffff" d="m2045.02192,494.31216c-30.91548,0.00012 -52.3344,3.94351 -64.25679,11.83014c-11.9225,7.88693 -17.88365,21.34088 -17.88365,40.36197c0,15.15503 4.4363,27.21719 13.3087,36.18643c9.01124,8.81467 21.2111,13.22202 36.59951,13.22189c21.2107,0.00013 38.19329,-8.35058 50.9476,-25.05206c12.89262,-16.85605 19.33941,-39.20199 19.33941,-67.03781l0,-9.51056l-38.05478,0m76.31789,-17.62935l0,148.22542l-38.26311,0l0,-39.43393c-8.73408,15.77353 -19.61671,27.44913 -32.64804,35.02658c-13.03177,7.42298 -28.9749,11.1344 -47.82874,11.1344c-23.84483,0 -42.83771,-7.42297 -56.97833,-22.26871c-14.00206,-15.00033 -21.00288,-35.02655 -21.00288,-60.07882c0,-29.22739 8.73385,-51.26407 26.20173,-66.10993c17.60638,-14.84559 43.80794,-22.26846 78.6052,-22.26866l53.65106,0l0,-4.17535c0,-19.63947 -5.82272,-34.7945 -17.46772,-45.46501c-11.50673,-10.82479 -27.72692,-16.23732 -48.66036,-16.23754c-13.30903,0.00022 -26.27109,1.77864 -38.88689,5.33515c-12.61563,3.55705 -24.74592,8.89227 -36.39129,16.0056l0,-39.43401c14.00207,-6.03081 27.58819,-10.51546 40.75834,-13.4539c13.17032,-3.09264 25.99388,-4.63907 38.4711,-4.63935c33.68752,0.00028 58.84948,9.7428 75.48583,29.22759c16.63562,19.48523 24.95387,49.022 24.9541,88.61047" id="path5272"/>
     <path fill="#ffffff" d="m2394.79422,468.1001l0,156.80813l-38.26279,0l0,-155.41638c-0.00021,-24.588 -4.29788,-42.99052 -12.89279,-55.20754c-8.59564,-12.21656 -21.48843,-18.32496 -38.67871,-18.32519c-20.65656,0.00023 -36.94614,7.34578 -48.86844,22.03665c-11.92249,14.69128 -17.88373,34.71753 -17.88373,60.07887l0,146.83359l-38.47098,0l0,-259.80038l38.47098,0l0,40.36181c9.14987,-15.61871 19.8938,-27.29429 32.23239,-35.02665c12.4769,-7.73188 26.82535,-11.59798 43.04575,-11.59826c26.75613,0.00028 46.99637,9.27884 60.7214,27.83576c13.7244,18.40278 20.58679,45.54257 20.58692,81.41959" id="path5274"/>
     <path fill="#ffffff" d="m2568.43277,649.03253c-10.81348,30.92859 -21.34961,51.10953 -31.60852,60.54272c-10.25873,9.43317 -23.98365,14.14975 -41.17401,14.14988l-30.56873,0l0,-35.72248l22.4585,0c10.53619,-0.00012 18.71576,-2.78369 24.53827,-8.35077c5.82251,-5.5672 12.26892,-18.71191 19.33941,-39.43399l6.86243,-19.48504l-94.20142,-255.625l40.55011,0l72.7826,203.20096l72.78259,-203.20096l40.55054,0l-102.31177,283.92468" id="path5276"/>
    </g>
    <g fill="#666666" id="text4707">
     <path fill="#ffffff" d="m820.48904,213.55203c-0.00012,-13.94675 -2.59448,-24.75552 -7.78308,-32.42636c-5.12634,-7.67067 -12.34668,-11.50603 -21.6615,-11.50615c-9.2522,0.00012 -16.47253,3.83548 -21.66137,11.50615c-5.12598,7.67084 -7.68946,18.47961 -7.68946,32.42636c0,13.87716 2.56348,24.65105 7.68946,32.32176c5.18884,7.67078 12.40918,11.50621 21.66137,11.50619c9.31482,0.00002 16.53516,-3.83541 21.6615,-11.50619c5.1886,-7.67071 7.78296,-18.4446 7.78308,-32.32176m17.25391,45.39692c0,19.94396 -3.96948,34.76247 -11.90894,44.45552c-7.93945,9.76275 -20.09863,14.6441 -36.47742,14.64416c-6.06396,-0.00006 -11.78418,-0.52302 -17.16027,-1.569c-5.37659,-0.97633 -10.59632,-2.5105 -15.66004,-4.60248l0,-18.72362c5.06372,3.06831 10.06494,5.33464 15.00354,6.79909c4.9386,1.46442 9.97119,2.1966 15.09766,2.19662c11.31494,-0.00002 19.78564,-3.31241 25.41211,-9.93712c5.6261,-6.555 8.43933,-16.49211 8.43945,-29.81133l0,-9.51871c-3.56348,6.90367 -8.12707,12.06403 -13.6908,15.48095c-5.56372,3.41701 -12.22168,5.12548 -19.97351,5.12548c-12.87817,0 -23.25561,-5.47411 -31.13244,-16.42238c-7.87659,-10.94823 -11.81519,-25.4529 -11.81519,-43.5141c0,-18.13076 3.9386,-32.67035 11.81519,-43.6187c7.87683,-10.94815 18.25427,-16.42228 31.13244,-16.42241c7.75183,0.00013 14.40979,1.70861 19.97351,5.12547c5.56373,3.41708 10.12732,8.57741 13.6908,15.481l0,-17.78223l17.25391,0l0,102.61379" id="path5241"/>
     <path fill="#ffffff" d="m963.11655,210.10017l0,9.41418l-79.33124,0c0.75012,13.24947 4.31347,23.36092 10.69012,30.33427c6.43878,6.90373 15.37836,10.35558 26.81867,10.35554c6.62652,0.00004 13.03418,-0.90651 19.22333,-2.71962c6.25152,-1.81308 12.44061,-4.5327 18.56719,-8.15888l0,18.20057c-6.18914,2.92884 -12.53442,5.16032 -19.03601,6.69447c-6.50152,1.53415 -13.09686,2.30125 -19.78582,2.30125c-16.75415,0 -30.0384,-5.43925 -39.85321,-16.31779c-9.75245,-10.87848 -14.62867,-25.59237 -14.62867,-44.14169c0,-19.17684 4.6261,-34.37885 13.87842,-45.60613c9.31458,-11.29683 21.849,-16.94529 37.60278,-16.94542c14.12806,0.00013 25.28711,5.09075 33.47663,15.2718c8.25183,10.11155 12.37781,23.88405 12.37781,41.31745m-17.25397,-5.64846c-0.12537,-10.52975 -2.78204,-18.93272 -7.97052,-25.20887c-5.12653,-6.27596 -11.94055,-9.41404 -20.44257,-9.41409c-9.62719,0.00007 -17.34784,3.03348 -23.16168,9.10027c-5.75152,6.06697 -9.06463,14.6094 -9.93976,25.62732l61.51453,-0.10467" id="path5243"/>
     <path fill="#ffffff" d="m1078.363,202.77812l0,70.71039l-17.25415,0l0,-70.0828c-0.00012,-11.08763 -1.93817,-19.38598 -5.81396,-24.89507c-3.87592,-5.50893 -9.68988,-8.26338 -17.44165,-8.2635c-9.31494,0.00012 -16.66022,3.31246 -22.03644,9.93711c-5.37646,6.62484 -8.0647,15.65538 -8.06445,27.0917l0,66.21256l-17.34784,0l0,-117.15335l17.34784,0l0,18.20063c4.12585,-7.04308 8.97082,-12.30796 14.53473,-15.79477c5.62616,-3.48659 12.09649,-5.22997 19.41083,-5.2301c12.06537,0.00013 21.19238,4.1842 27.38159,12.55218c6.18872,8.29843 9.28332,20.53678 9.28351,36.71502" id="path5245"/>
     <path fill="#ffffff" d="m1202.79855,210.10017l0,9.41418l-79.33105,0c0.74987,13.24947 4.31317,23.36092 10.68969,30.33427c6.43909,6.90373 15.37867,10.35558 26.81909,10.35554c6.62653,0.00004 13.03412,-0.90651 19.22315,-2.71962c6.25165,-1.81308 12.44055,-4.5327 18.56702,-8.15888l0,18.20057c-6.18915,2.92884 -12.53431,5.16032 -19.03583,6.69447c-6.50177,1.53415 -13.09692,2.30125 -19.78607,2.30125c-16.75379,0 -30.03833,-5.43925 -39.85303,-16.31779c-9.75226,-10.87848 -14.62854,-25.59237 -14.62854,-44.14169c0,-19.17684 4.6261,-34.37885 13.87836,-45.60613c9.31463,-11.29683 21.84893,-16.94529 37.60272,-16.94542c14.12817,0.00013 25.28711,5.09075 33.47656,15.2718c8.25202,10.11155 12.37793,23.88405 12.37793,41.31745m-17.2539,-5.64846c-0.12531,-10.52975 -2.78205,-18.93272 -7.97083,-25.20887c-5.12628,-6.27596 -11.94037,-9.41404 -20.44226,-9.41409c-9.6272,0.00007 -17.34796,3.03348 -23.16168,9.10027c-5.75159,6.06697 -9.06476,14.6094 -9.93988,25.62732l61.51465,-0.10467" id="path5247"/>
     <path fill="#ffffff" d="m1291.60104,174.32658c-1.93805,-1.25512 -4.0636,-2.16166 -6.37665,-2.71966c-2.25042,-0.62749 -4.75122,-0.9413 -7.50171,-0.9414c-9.7525,0.0001 -17.25402,3.55655 -22.50537,10.66933c-5.18884,7.04324 -7.78308,17.18957 -7.78308,30.43899l0,61.71468l-17.34771,0l0,-117.15336l17.34771,0l0,18.20063c3.62604,-7.11278 8.34577,-12.37769 14.15967,-15.79481c5.8139,-3.48655 12.87799,-5.22994 21.19257,-5.23006c1.18762,0.00012 2.50061,0.10473 3.93841,0.31381c1.43763,0.13957 3.03192,0.38369 4.78253,0.7322l0.09363,19.76965" id="path5249"/>
     <path fill="#ffffff" d="m1309.88669,156.33516l17.2539,0l0,117.15336l-17.2539,0l0,-117.15336m0,-45.60612l17.2539,0l0,24.37208l-17.2539,0l0,-24.37208" id="path5251"/>
     <path fill="#ffffff" d="m1438.7298,160.83303l0,17.99139c-4.87623,-2.99844 -9.78373,-5.22996 -14.72229,-6.69449c-4.87623,-1.53399 -9.8147,-2.30111 -14.81601,-2.30119c-11.19013,0.00008 -19.87964,3.97495 -26.06849,11.92454c-6.18902,7.88002 -9.28357,18.96774 -9.28357,33.26318c0,14.29553 3.09455,25.41813 9.28357,33.36777c6.18885,7.88 14.87836,11.81997 26.06848,11.81992c5.00132,0.00005 9.93979,-0.73218 14.81601,-2.19659c4.93857,-1.53411 9.84607,-3.80052 14.72229,-6.79909l0,17.78219c-4.81353,2.51044 -9.81494,4.39327 -15.00354,5.64846c-5.12622,1.25525 -10.59622,1.88283 -16.41018,1.88283c-15.81616,0 -28.3819,-5.54386 -37.69641,-16.6316c-9.31464,-11.0877 -13.97211,-26.0456 -13.97211,-44.87389c0,-19.1071 4.68872,-34.13478 14.06573,-45.08313c9.43982,-10.94815 22.34906,-16.42228 38.72809,-16.42241c5.31378,0.00013 10.50235,0.62775 15.56613,1.88283c5.06373,1.18562 9.97117,2.99868 14.72229,5.43928" id="path5253"/>
     <path fill="#ffffff" d="m1529.68893,110.72904l17.25397,0l0,162.75948l-17.25397,0l0,-162.75948" id="path5255"/>
     <path fill="#ffffff" d="m1623.64865,169.82874c-9.25217,0.00008 -16.56641,4.04467 -21.9426,12.13376c-5.3764,8.01949 -8.06451,19.03748 -8.06451,33.05396c0,14.01659 2.65686,25.06945 7.97064,33.15859c5.37641,8.01946 12.72183,12.02915 22.03647,12.02911c9.18967,0.00004 16.47272,-4.04453 21.84894,-12.13371c5.37631,-8.08912 8.06445,-19.10713 8.06445,-33.05399c0,-13.87703 -2.68814,-24.86014 -8.06445,-32.9494c-5.37622,-8.15875 -12.65927,-12.23824 -21.84894,-12.23832m0,-16.31782c15.00351,0.00013 26.78772,5.43942 35.35231,16.31782c8.56447,10.87861 12.84665,25.94119 12.84665,45.18772c0,19.17693 -4.28218,34.23949 -12.84665,45.18769c-8.56459,10.87854 -20.3488,16.3178 -35.35231,16.3178c-15.06616,0 -26.88138,-5.43926 -35.4458,-16.3178c-8.50201,-10.9482 -12.75308,-26.01076 -12.75308,-45.18769c0,-19.24653 4.25107,-34.30911 12.75308,-45.18772c8.56442,-10.8784 20.37964,-16.31769 35.4458,-16.31782" id="path5257"/>
     <path fill="#ffffff" d="m1769.46467,213.55203c-0.00019,-13.94675 -2.59454,-24.75552 -7.78309,-32.42636c-5.12645,-7.67067 -12.34685,-11.50603 -21.66149,-11.50615c-9.25222,0.00012 -16.47262,3.83548 -21.66148,11.50615c-5.1261,7.67084 -7.68933,18.47961 -7.6891,32.42636c-0.00023,13.87716 2.563,24.65105 7.6891,32.32176c5.18886,7.67078 12.40926,11.50621 21.66148,11.50619c9.31464,0.00002 16.53504,-3.83541 21.66149,-11.50619c5.18855,-7.67071 7.7829,-18.4446 7.78309,-32.32176m17.25417,45.39692c-0.0002,19.94396 -3.96988,34.76247 -11.90912,44.45552c-7.93959,9.76275 -20.09866,14.6441 -36.47754,14.64416c-6.06384,-0.00006 -11.78404,-0.52302 -17.16017,-1.569c-5.3763,-0.97633 -10.5965,-2.5105 -15.66005,-4.60248l0,-18.72362c5.06355,3.06831 10.06487,5.33464 15.0035,6.79909c4.93876,1.46442 9.97122,2.1966 15.09732,2.19662c11.31518,-0.00002 19.78584,-3.31241 25.41224,-9.93712c5.62633,-6.555 8.43946,-16.49211 8.43965,-29.81133l0,-9.51871c-3.56356,6.90367 -8.12696,12.06403 -13.69075,15.48095c-5.56385,3.41701 -12.22174,5.12548 -19.9736,5.12548c-12.87796,0 -23.25549,-5.47411 -31.13225,-16.42238c-7.87687,-10.94823 -11.81543,-25.4529 -11.81543,-43.5141c0,-18.13076 3.93856,-32.67035 11.81543,-43.6187c7.87676,-10.94815 18.25429,-16.42228 31.13225,-16.42241c7.75186,0.00013 14.40975,1.70861 19.9736,5.12547c5.56379,3.41708 10.12719,8.57741 13.69075,15.481l0,-17.78223l17.25417,0l0,102.61379" id="path5259"/>
     <path fill="#ffffff" d="m1862.9559,169.82874c-9.25216,0.00008 -16.5663,4.04467 -21.9427,12.13376c-5.37652,8.01949 -8.06452,19.03748 -8.06452,33.05396c0,14.01659 2.65689,25.06945 7.97064,33.15859c5.37622,8.01946 12.72176,12.02915 22.03658,12.02911c9.18954,0.00004 16.47242,-4.04453 21.84904,-12.13371c5.37602,-8.08912 8.06432,-19.10713 8.06432,-33.05399c0,-13.87703 -2.6883,-24.86014 -8.06432,-32.9494c-5.37662,-8.15875 -12.6595,-12.23824 -21.84904,-12.23832m0,-16.31782c15.00333,0.00013 26.7875,5.43942 35.35212,16.31782c8.56432,10.87861 12.84665,25.94119 12.84685,45.18772c-0.0002,19.17693 -4.28253,34.23949 -12.84685,45.18769c-8.56462,10.87854 -20.34879,16.3178 -35.35212,16.3178c-15.06637,0 -26.88136,-5.43926 -35.446,-16.3178c-8.50208,-10.9482 -12.75317,-26.01076 -12.75317,-45.18769c0,-19.24653 4.25109,-34.30911 12.75317,-45.18772c8.56464,-10.8784 20.37963,-16.31769 35.446,-16.31782" id="path5261"/>
    </g>
    <g id="g5278">
     <path fill="url(#linearGradient5311)" d="m565.56106,108.24063c129.37976,144.32085 129.37976,378.31119 0.00013,522.63202c-129.38013,144.32077 -339.14637,144.32077 -468.52637,-0.00009c-129.37976,-144.32087 -129.37976,-378.31104 0,-522.63189c129.38,-144.32087 339.14624,-144.32087 468.52624,-0.00004z" id="path4711"/>
     <path fill="#eeeeee" id="path4713" d="m567.20132,314.48701c78.77588,87.87282 78.77588,230.3427 0,318.21541c-78.77539,87.87283 -206.49597,87.87283 -285.27185,0c-78.77563,-87.87274 -78.77563,-230.34259 0,-318.21539c78.77588,-87.87279 206.49646,-87.87278 285.27185,-0.00002z"/>
    </g>
    <line stroke-linecap="undefined" stroke-linejoin="undefined" id="svg_1" y2="398.37506" x2="532.498281" y1="136.374519" x1="962.499169" stroke-width="1.5" fill="none"/>
   </g>
  </g>
 </g>
</svg>